<?xml version="1.0" standalone="no"?>
<!DOCTYPE svg PUBLIC "-//W3C//DTD SVG 20010904//EN"
 "http://www.w3.org/TR/2001/REC-SVG-20010904/DTD/svg10.dtd">
<svg version="1.0" xmlns="http://www.w3.org/2000/svg"
 width="888.000000pt" height="287.000000pt" viewBox="0 0 888.000000 287.000000"
 preserveAspectRatio="xMidYMid meet">

<g transform="translate(0.000000,287.000000) scale(0.100000,-0.100000)"
fill="#000000" stroke="none">
<path d="M1680 2764 c-210 -26 -407 -95 -564 -197 -361 -236 -567 -616 -569
-1052 -1 -146 19 -276 59 -395 31 -89 80 -200 89 -200 3 0 3 5 0 11 -4 6 15
31 41 57 27 26 40 40 29 33 -11 -7 0 6 25 30 25 23 36 36 25 28 -28 -19 13 31
75 91 25 25 36 38 25 30 -29 -22 38 57 93 110 26 25 38 38 27 30 -11 -8 13 22
54 67 40 46 77 80 82 77 5 -3 8 0 7 8 -2 7 4 12 12 10 8 -2 12 -1 9 3 -4 3 12
25 35 48 l42 42 -41 -35 -40 -35 44 47 c24 26 48 45 53 42 5 -3 7 -1 6 5 -2 6
8 21 22 33 14 13 19 19 10 14 -8 -4 1 6 20 24 19 18 29 29 22 25 -11 -6 -11
-3 -1 13 7 12 17 18 21 16 5 -3 8 -2 7 3 -3 20 2 34 11 28 6 -4 7 1 3 11 -4
12 -3 15 5 10 8 -5 10 -1 5 10 -4 12 -3 15 5 10 8 -5 10 -1 5 10 -5 13 -3 15
7 9 8 -5 11 -4 7 3 -10 15 3 43 16 35 6 -4 8 0 4 10 -8 22 2 49 15 41 6 -4 7
2 3 16 -5 14 -3 20 3 16 13 -8 33 49 25 71 -4 11 -3 14 5 9 7 -4 13 -1 13 6 1
7 3 20 4 28 1 8 3 21 4 28 0 7 5 10 11 7 6 -4 7 1 3 11 -4 12 -3 15 5 10 8 -4
10 -2 6 8 -4 9 19 39 63 83 38 37 48 50 23 28 l-45 -40 35 38 c39 43 99 89 85
66 -4 -7 3 -2 18 14 26 26 44 37 32 17 -3 -6 1 -7 9 -4 9 3 14 10 11 14 -7 11
22 20 42 13 11 -5 14 -3 8 6 -6 10 -2 11 15 6 15 -5 20 -4 16 4 -5 7 4 9 26 5
19 -3 28 -2 21 3 -6 4 39 8 102 8 64 0 111 -4 108 -9 -4 -5 6 -6 21 -2 20 5
26 3 21 -5 -5 -8 -1 -9 15 -4 17 5 21 4 15 -6 -6 -9 -3 -11 8 -6 10 3 17 2 17
-4 0 -6 5 -7 10 -4 6 3 10 1 10 -5 0 -6 4 -9 9 -6 4 3 17 -2 27 -10 10 -9 13
-12 5 -8 -9 5 -12 3 -7 -5 4 -6 11 -9 15 -7 4 3 18 -5 32 -17 14 -12 18 -18 9
-13 -13 9 -13 8 0 -7 12 -13 40 -16 147 -19 72 -2 129 -7 126 -11 -2 -4 8 -5
23 -1 20 5 25 4 19 -6 -5 -9 -2 -10 15 -5 14 4 20 3 17 -2 -4 -6 5 -15 19 -22
18 -8 23 -8 18 0 -15 25 34 -12 74 -55 40 -44 53 -64 32 -51 -6 3 -7 -1 -4 -9
4 -12 0 -16 -17 -17 l-24 -1 25 -9 c18 -6 11 -7 -25 -3 -37 4 -46 2 -35 -6 11
-8 5 -9 -25 -5 -31 5 -37 4 -25 -5 12 -9 9 -10 -13 -5 -21 4 -27 3 -21 -6 5
-9 -1 -10 -20 -5 -20 5 -26 3 -21 -5 5 -8 1 -9 -15 -4 -16 5 -20 4 -15 -4 5
-8 -1 -10 -21 -5 -20 5 -25 4 -19 -6 5 -9 2 -10 -15 -5 -14 4 -20 3 -16 -3 8
-13 -19 -23 -41 -15 -11 5 -14 3 -8 -6 5 -10 2 -11 -12 -7 -13 4 -28 0 -40
-11 -10 -10 -12 -14 -3 -8 8 5 4 -3 -9 -17 -13 -15 -27 -25 -32 -23 -4 3 -11
0 -15 -6 -5 -8 -3 -9 7 -4 8 5 1 -4 -14 -18 -21 -20 -27 -33 -22 -48 5 -13 3
-19 -3 -15 -12 7 -22 -27 -22 -79 0 -51 10 -86 22 -79 5 3 6 -6 3 -23 -5 -21
-4 -24 4 -13 9 13 11 12 12 -5 1 -11 1 -28 1 -38 -1 -11 2 -15 9 -11 8 4 9 -1
4 -16 -5 -16 -4 -20 5 -15 9 5 10 1 5 -15 -5 -16 -4 -20 4 -15 8 5 10 -1 5
-21 -5 -19 -4 -25 4 -20 8 5 10 -3 6 -26 -3 -20 -2 -28 3 -21 5 7 8 -64 8
-167 0 -98 -4 -173 -8 -167 -5 7 -5 -3 -2 -22 5 -24 4 -31 -4 -26 -8 5 -10 -1
-5 -21 5 -21 4 -25 -6 -19 -10 6 -12 4 -7 -8 8 -22 -2 -49 -16 -40 -6 4 -8 0
-4 -10 8 -22 -2 -49 -16 -40 -6 4 -8 0 -4 -10 3 -10 2 -17 -3 -17 -5 0 -14
-10 -21 -21 -8 -15 -8 -19 0 -15 21 13 11 -5 -16 -31 -16 -15 -22 -23 -15 -19
24 14 11 -7 -25 -42 -21 -20 -29 -29 -18 -21 29 20 -55 -79 -107 -126 -78 -73
-113 -101 -99 -80 8 11 -1 4 -20 -16 -19 -19 -45 -44 -59 -55 -25 -19 -25 -19
-10 1 8 11 -4 2 -25 -21 -22 -22 -53 -50 -70 -63 -16 -12 -25 -20 -18 -17 7 4
9 -1 6 -15 -4 -16 -8 -17 -14 -7 -6 9 -9 5 -9 -14 0 -34 10 -59 21 -52 5 3 6
-1 4 -8 -14 -35 291 17 433 73 176 70 312 159 437 284 364 365 472 905 277
1379 -63 152 -132 255 -262 387 -193 197 -398 308 -669 364 -74 15 -305 27
-371 19z m373 -361 c-18 -2 -48 -2 -65 0 -18 2 -4 4 32 4 36 0 50 -2 33 -4z
m410 -130 c-18 -2 -48 -2 -65 0 -18 2 -4 4 32 4 36 0 50 -2 33 -4z m104 -9
c-3 -3 -12 -4 -19 -1 -8 3 -5 6 6 6 11 1 17 -2 13 -5z m-240 -501 c-3 -10 -5
-4 -5 12 0 17 2 24 5 18 2 -7 2 -21 0 -30z m0 -60 c-3 -10 -5 -4 -5 12 0 17 2
24 5 18 2 -7 2 -21 0 -30z m90 -355 c-3 -7 -5 -2 -5 12 0 14 2 19 5 13 2 -7 2
-19 0 -25z m0 -205 c-3 -10 -5 -4 -5 12 0 17 2 24 5 18 2 -7 2 -21 0 -30z
m-590 -855 c-3 -8 -6 -5 -6 6 -1 11 2 17 5 13 3 -3 4 -12 1 -19z"/>
<path d="M2051 2216 c-68 -38 -66 -152 4 -184 75 -34 155 13 155 93 0 81 -87
131 -159 91z"/>
<path d="M1786 1522 c-6 -10 48 -65 55 -58 3 3 11 -4 18 -16 10 -16 10 -19 -1
-13 -7 3 -5 0 4 -8 10 -8 15 -17 11 -20 -3 -4 -1 -7 6 -7 7 0 9 -4 6 -10 -3
-5 -2 -10 4 -10 6 0 7 -7 4 -17 -4 -11 -3 -14 6 -9 9 6 10 0 6 -21 -4 -16 -3
-23 2 -16 4 6 8 -21 8 -63 1 -44 -3 -69 -8 -61 -5 7 -6 1 -2 -16 4 -20 2 -27
-6 -22 -8 5 -9 1 -4 -15 5 -15 4 -20 -4 -16 -10 7 -13 3 -15 -26 -1 -7 -8 -19
-16 -26 -8 -8 -9 -11 -2 -7 21 11 13 -5 -15 -32 -16 -15 -21 -22 -13 -18 25
15 -6 -22 -85 -100 -39 -38 -51 -52 -25 -30 33 29 30 24 -13 -18 -32 -32 -62
-55 -66 -52 -5 2 -15 -3 -22 -13 -13 -15 -12 -16 4 -3 9 7 17 11 17 8 0 -2
-17 -17 -37 -33 -26 -19 -33 -22 -23 -9 8 11 -4 1 -28 -22 -39 -40 -53 -48
-75 -44 -5 1 -6 -2 -3 -7 3 -5 -9 -17 -26 -27 -21 -12 -28 -14 -23 -4 5 8 -6
-1 -24 -19 -19 -19 -40 -31 -48 -28 -8 3 -11 1 -8 -4 3 -6 1 -10 -4 -10 -20 0
-26 -3 -37 -18 -7 -9 -16 -12 -24 -7 -8 5 -11 4 -7 -2 4 -6 0 -14 -9 -17 -10
-4 -13 -2 -9 7 4 6 -2 1 -13 -12 -12 -15 -24 -21 -32 -16 -9 6 -11 4 -6 -4 6
-8 2 -11 -10 -9 -22 4 -26 -23 -5 -30 9 -3 11 0 6 8 -5 9 -2 10 15 5 16 -5 20
-4 15 5 -5 9 -1 10 15 5 17 -5 21 -4 15 6 -6 9 -3 11 8 6 22 -8 49 2 40 16 -4
6 0 8 10 4 10 -3 17 -2 17 4 0 6 4 8 9 5 12 -8 42 4 36 14 -7 11 24 22 37 13
7 -4 8 -1 3 7 -6 10 -4 12 9 7 9 -4 15 -3 12 2 -3 5 1 12 10 15 10 4 13 2 9
-7 -4 -6 0 -4 8 5 8 10 17 15 20 11 4 -3 7 -1 7 6 0 7 5 9 10 6 6 -3 10 -2 10
4 0 6 10 15 21 22 17 9 20 8 14 -3 -5 -7 3 -1 18 15 27 28 43 36 32 15 -4 -7
2 -4 12 7 10 12 27 27 37 35 18 13 19 13 12 0 -4 -8 2 -4 14 10 12 14 18 19
14 11 -4 -8 12 5 35 28 23 23 45 40 50 37 8 -5 100 83 101 96 2 21 13 37 23
31 6 -3 7 -1 3 5 -4 7 5 24 21 39 15 14 22 23 15 19 -10 -6 -10 -2 -1 18 7 14
15 23 19 21 11 -7 20 22 13 42 -5 11 -3 14 6 8 10 -6 11 -2 6 15 -5 15 -4 20
4 16 7 -5 9 8 6 41 -3 38 -3 42 4 18 7 -25 9 -20 9 30 0 45 -2 55 -9 40 -7
-15 -8 -11 -5 18 6 44 -2 70 -17 60 -6 -4 -8 0 -4 10 4 10 1 17 -5 17 -6 0 -9
3 -5 6 3 3 -3 14 -14 25 -11 11 -17 23 -15 28 3 4 -10 23 -29 41 -19 19 -35
30 -35 25 0 -5 -7 0 -15 11 -8 10 -15 15 -15 9 0 -5 -5 -3 -10 5 -7 11 -10 11
-10 2 0 -7 -5 -10 -10 -7 -6 4 -8 11 -5 16 4 5 4 9 1 9 -3 0 -7 -4 -10 -8z
m51 -39 c0 -9 -4 -10 -14 -2 -7 6 -13 12 -13 14 0 1 6 2 13 2 8 0 14 -6 14
-14z m59 -35 l29 -33 -32 29 c-18 17 -33 31 -33 33 0 8 8 1 36 -29z m-76 -583
c-24 -25 -46 -45 -49 -45 -3 0 15 20 39 45 24 25 46 45 49 45 3 0 -15 -20 -39
-45z"/>
<path d="M1124 1438 l-29 -33 33 29 c17 17 32 31 32 33 0 8 -8 1 -36 -29z"/>
<path d="M974 1268 l-19 -23 23 19 c21 18 27 26 19 26 -2 0 -12 -10 -23 -22z"/>
<path d="M859 1133 c-13 -16 -12 -17 4 -4 16 13 21 21 13 21 -2 0 -10 -8 -17
-17z"/>
<path d="M719 963 c-13 -16 -12 -17 4 -4 9 7 17 15 17 17 0 8 -8 3 -21 -13z"/>
<path d="M1176 742 c-3 -5 1 -9 9 -9 8 0 12 4 9 9 -3 4 -7 8 -9 8 -2 0 -6 -4
-9 -8z"/>
<path d="M1144 715 c-4 -8 -11 -12 -17 -8 -6 4 -7 1 -2 -7 6 -10 4 -12 -8 -7
-11 4 -20 -1 -27 -12 -5 -10 -17 -21 -25 -25 -11 -4 -14 -2 -9 7 4 6 -4 0 -19
-15 -27 -29 -43 -37 -31 -15 4 6 -4 0 -19 -15 -27 -29 -43 -37 -32 -15 4 6 -2
2 -12 -10 -10 -12 -25 -23 -33 -25 -8 -2 -21 -10 -28 -18 -12 -13 -13 -13 -6
0 4 8 -4 3 -19 -12 -27 -29 -43 -37 -31 -15 4 6 -4 0 -19 -15 -27 -29 -43 -37
-32 -15 4 6 -2 2 -12 -9 -23 -28 -69 -53 -58 -32 3 7 -1 4 -9 -6 -9 -11 -16
-16 -16 -11 0 5 -7 0 -16 -11 -8 -10 -13 -13 -9 -7 4 9 1 11 -11 6 -14 -5 -12
-8 10 -22 30 -18 33 -28 9 -33 -15 -3 -14 -5 5 -10 17 -5 22 -2 22 13 0 13 5
17 17 12 10 -4 14 -2 10 4 -8 12 20 26 34 17 5 -3 9 0 9 6 0 6 4 8 10 5 13 -8
70 22 70 37 0 6 3 8 7 5 3 -4 12 1 20 11 10 11 12 12 8 2 -4 -8 3 -4 15 10 12
14 19 18 15 10 -4 -8 3 -4 15 10 12 14 19 18 15 10 -4 -8 5 -1 21 16 16 16 42
41 59 55 24 19 27 20 16 4 -8 -11 5 1 28 28 24 26 46 45 50 42 5 -2 21 10 37
27 16 17 23 27 15 23 -11 -6 -13 -4 -8 8 3 10 4 17 1 17 -2 0 -7 -7 -10 -15z
m6 -18 c0 -2 -10 -12 -22 -23 l-23 -19 19 23 c18 21 26 27 26 19z"/>
<path d="M2135 628 l-60 -63 63 60 c34 33 62 61 62 62 0 8 -10 -1 -65 -59z"/>
<path d="M1138 488 c5 -5 16 -8 23 -6 8 3 3 7 -10 11 -17 4 -21 3 -13 -5z"/>
<path d="M1085 470 c-3 -5 -1 -10 4 -10 6 0 11 5 11 10 0 6 -2 10 -4 10 -3 0
-8 -4 -11 -10z"/>
</g>
</svg>
